<mxfile host="app.diagrams.net" modified="2024-01-14T15:00:27.763Z" agent="Mozilla/5.0 (Windows NT 10.0; Win64; x64) AppleWebKit/537.36 (KHTML, like Gecko) Chrome/120.0.0.0 Safari/537.36" version="22.1.18" etag="sbOLUNLc_QHVz5Pao3Lo" type="github">
  <diagram name="페이지-1" id="o3a6fXnAqblbPJa_n0Ni">
    <mxGraphModel>
      <root>
        <mxCell id="0" />
        <mxCell id="1" parent="0" />
      </root>
    </mxGraphModel>
  </diagram>
</mxfile>
